<svg xmlns="http://www.w3.org/2000/svg" viewBox="0.00 -73.24 355.34 205.48" width="355" height="205" role="img" aria-label="College Trends" xmlns:c2pa="http://c2pa.org/manifest"><metadata><c2pa:manifest>AAAWgmp1bWIAAAAeanVtZGMycGEAEQAQgAAAqgA4m3EDYzJwYQAAABZcanVtYgAAAEdqdW1kYzJtYQARABCAAACqADibcQN1cm46YzJwYTpiZTAyMzBjMS0xNTQzLTQ2ODQtOTcyNi1hNTZkMGJjZWE5ZjcAAAADl2p1bWIAAAApanVtZGMyYXMAEQAQgAAAqgA4m3EDYzJwYS5hc3NlcnRpb25zAAAAALxqdW1iAAAARGp1bWRjYm9yABEAEIAAAKoAOJtxE2MycGEuaW5ncmVkaWVudC52MwAAAAAYYzJzaC3EPYiKd65EHWhfMUULiaMAAABwY2JvcqNpZGM6Zm9ybWF0bWltYWdlL3N2Zyt4bWxqaW5zdGFuY2VJRHgseG1wOmlpZDozNDFhZmE3NS01MWU2LTRhZDctOWM3Mi1mOTgwNDM3ZWQ2ODNscmVsYXRpb25zaGlwaHBhcmVudE9mAAAB4mp1bWIAAABBanVtZGNib3IAEQAQgAAAqgA4m3ETYzJwYS5hY3Rpb25zLnYyAAAAABhjMnNo44UgA6tQD+dKwLGouOVNjQAAAZljYm9yomdhY3Rpb25zgqJmYWN0aW9ua2MycGEub3BlbmVkanBhcmFtZXRlcnOha2luZ3JlZGllbnRzgaJjdXJseC1zZWxmI2p1bWJmPWMycGEuYXNzZXJ0aW9ucy9jMnBhLmluZ3JlZGllbnQudjNkaGFzaFggMu5G8PoeaQNxEou9mMzzHuDCv+EWvejJFyUoA2vSqSKkZmFjdGlvbngdY29tLmFudGhyb3BpYy5jbGF1ZGUucHJvdmlkZWRqcGFyYW1ldGVyc6F4H2NvbS5hbnRocm9waWMub3JpZ2luLWNvbmZpZGVuY2VndW5rbm93bmtkZXNjcmlwdGlvbnhmQ2xhdWRlIHByb3ZpZGVkIHRoaXMgZmlsZSBhdCB0aGUgcmVxdWVzdCBvZiBhIHVzZXIgYW5kIG1heSBoYXZlIGNyZWF0ZWQgb3IgbW9kaWZpZWQgdGhlIGZpbGUgY29udGVudHMubXNvZnR3YXJlQWdlbnShZG5hbWVmQ2xhdWRlcmFsbEFjdGlvbnNJbmNsdWRlZPUAAADIanVtYgAAAEBqdW1kY2JvcgARABCAAACqADibcRNjMnBhLmhhc2guZGF0YQAAAAAYYzJzaL4JfidtVeXp444MlqkNAzYAAACAY2JvcqVjYWxnZnNoYTI1NmNwYWRNAAAAAAAAAAAAAAAAAGRoYXNoWCDWFZint/iOM/Xi33jllgWH9NtmWWk7wQscZKanE+gHu2RuYW1lbmp1bWJmIG1hbmlmZXN0amV4Y2x1c2lvbnOBomVzdGFydBjLZmxlbmd0aBkeBAAAAj5qdW1iAAAAJ2p1bWRjMmNsABEAEIAAAKoAOJtxA2MycGEuY2xhaW0udjIAAAACD2Nib3KlY2FsZ2ZzaGEyNTZpc2lnbmF0dXJleE1zZWxmI2p1bWJmPS9jMnBhL3VybjpjMnBhOmJlMDIzMGMxLTE1NDMtNDY4NC05NzI2LWE1NmQwYmNlYTlmNy9jMnBhLnNpZ25hdHVyZWppbnN0YW5jZUlEeCx4bXA6aWlkOmIyMzg1MjQ3LTM3ODgtNDZhYi04MzhjLTc0OWYxMzcyZWZkMXJjcmVhdGVkX2Fzc2VydGlvbnODomN1cmx4LXNlbGYjanVtYmY9YzJwYS5hc3NlcnRpb25zL2MycGEuaW5ncmVkaWVudC52M2RoYXNoWCAy7kbw+h5pA3ESi72YzPMe4MK/4Ra96MkXJSgDa9KpIqJjdXJseCpzZWxmI2p1bWJmPWMycGEuYXNzZXJ0aW9ucy9jMnBhLmFjdGlvbnMudjJkaGFzaFggbQzAHew64URnMpHkOdHtbS3xeEp4SXZVizmkkQpR5T2iY3VybHgpc2VsZiNqdW1iZj1jMnBhLmFzc2VydGlvbnMvYzJwYS5oYXNoLmRhdGFkaGFzaFggDcCjRJW3ncXs/EE9PuNVZDW+e2icotQFJYCap1xNmnZ0Y2xhaW1fZ2VuZXJhdG9yX2luZm+jZG5hbWVvQW50aHJvcGljIEZpbGVzZ3ZlcnNpb25lMS4wLjBrc3BlY1ZlcnNpb25lMi40LjAAABA4anVtYgAAAChqdW1kYzJjcwARABCAAACqADibcQNjMnBhLnNpZ25hdHVyZQAAABAIY2JvctKEWQISogEmGCFZAgowggIGMIIBjaADAgECAhRA5aAK7sI50L64g/oGQgU9Z1UTADAKBggqhkjOPQQDAzBJMRcwFQYDVQQKEw5BbnRocm9waWMsIFBCQzEuMCwGA1UEAxMlQW50aHJvcGljIENvbnRlbnQgQ3JlZGVudGlhbHMgUm9vdCBDQTAeFw0yNjA4MDcxODQzNTZaFw0yODA4MDYxOTQzNTZaMEQxFzAVBgNVBAoTDkFudGhyb3BpYywgUEJDMSkwJwYDVQQDEyBBbnRocm9waWMgQ2xhdWRlIENvbnRlbnQgU2lnbmluZzBZMBMGByqGSM49AgEGCCqGSM49AwEHA0IABJh6CmvLUBgFFNU0vUKlOVtE6djd17L5SuwX0LemFisBM3dkd/3cyjxFA3Qo5S46fX0/ihY0VZ7mfb9KF703t5OjWDBWMA4GA1UdDwEB/wQEAwIHgDAVBgNVHSUEDjAMBgorBgEEAYPoXgIBMAwGA1UdEwEB/wQCMAAwHwYDVR0jBBgwFoAUzlHiBIFOZFsj+OPEz5o+nMHXXMIwCgYIKoZIzj0EAwMDZwAwZAIwMXMdFJ4BetLLVY7ORuE9noqbbAZOZn/aArXyTwFAZfKrPzxF2vPoJNf1+UCdg1XGAjBwX1zd9WGqYkqmL5SFqw1QySjr1zJfpJM9+1rdDwSPLMOPOjKuiXjoU/pUUeG9RwmhY3BhZFkNngAAAAAAAAAAAAAAAAAAAAAAAAAAAAAAAAAAAAAAAAAAAAAAAAAAAAAAAAAAAAAAAAAAAAAAAAAAAAAAAAAAAAAAAAAAAAAAAAAAAAAAAAAAAAAAAAAAAAAAAAAAAAAAAAAAAAAAAAAAAAAAAAAAAAAAAAAAAAAAAAAAAAAAAAAAAAAAAAAAAAAAAAAAAAAAAAAAAAAAAAAAAAAAAAAAAAAAAAAAAAAAAAAAAAAAAAAAAAAAAAAAAAAAAAAAAAAAAAAAAAAAAAAAAAAAAAAAAAAAAAAAAAAAAAAAAAAAAAAAAAAAAAAAAAAAAAAAAAAAAAAAAAAAAAAAAAAAAAAAAAAAAAAAAAAAAAAAAAAAAAAAAAAAAAAAAAAAAAAAAAAAAAAAAAAAAAAAAAAAAAAAAAAAAAAAAAAAAAAAAAAAAAAAAAAAAAAAAAAAAAAAAAAAAAAAAAAAAAAAAAAAAAAAAAAAAAAAAAAAAAAAAAAAAAAAAAAAAAAAAAAAAAAAAAAAAAAAAAAAAAAAAAAAAAAAAAAAAAAAAAAAAAAAAAAAAAAAAAAAAAAAAAAAAAAAAAAAAAAAAAAAAAAAAAAAAAAAAAAAAAAAAAAAAAAAAAAAAAAAAAAAAAAAAAAAAAAAAAAAAAAAAAAAAAAAAAAAAAAAAAAAAAAAAAAAAAAAAAAAAAAAAAAAAAAAAAAAAAAAAAAAAAAAAAAAAAAAAAAAAAAAAAAAAAAAAAAAAAAAAAAAAAAAAAAAAAAAAAAAAAAAAAAAAAAAAAAAAAAAAAAAAAAAAAAAAAAAAAAAAAAAAAAAAAAAAAAAAAAAAAAAAAAAAAAAAAAAAAAAAAAAAAAAAAAAAAAAAAAAAAAAAAAAAAAAAAAAAAAAAAAAAAAAAAAAAAAAAAAAAAAAAAAAAAAAAAAAAAAAAAAAAAAAAAAAAAAAAAAAAAAAAAAAAAAAAAAAAAAAAAAAAAAAAAAAAAAAAAAAAAAAAAAAAAAAAAAAAAAAAAAAAAAAAAAAAAAAAAAAAAAAAAAAAAAAAAAAAAAAAAAAAAAAAAAAAAAAAAAAAAAAAAAAAAAAAAAAAAAAAAAAAAAAAAAAAAAAAAAAAAAAAAAAAAAAAAAAAAAAAAAAAAAAAAAAAAAAAAAAAAAAAAAAAAAAAAAAAAAAAAAAAAAAAAAAAAAAAAAAAAAAAAAAAAAAAAAAAAAAAAAAAAAAAAAAAAAAAAAAAAAAAAAAAAAAAAAAAAAAAAAAAAAAAAAAAAAAAAAAAAAAAAAAAAAAAAAAAAAAAAAAAAAAAAAAAAAAAAAAAAAAAAAAAAAAAAAAAAAAAAAAAAAAAAAAAAAAAAAAAAAAAAAAAAAAAAAAAAAAAAAAAAAAAAAAAAAAAAAAAAAAAAAAAAAAAAAAAAAAAAAAAAAAAAAAAAAAAAAAAAAAAAAAAAAAAAAAAAAAAAAAAAAAAAAAAAAAAAAAAAAAAAAAAAAAAAAAAAAAAAAAAAAAAAAAAAAAAAAAAAAAAAAAAAAAAAAAAAAAAAAAAAAAAAAAAAAAAAAAAAAAAAAAAAAAAAAAAAAAAAAAAAAAAAAAAAAAAAAAAAAAAAAAAAAAAAAAAAAAAAAAAAAAAAAAAAAAAAAAAAAAAAAAAAAAAAAAAAAAAAAAAAAAAAAAAAAAAAAAAAAAAAAAAAAAAAAAAAAAAAAAAAAAAAAAAAAAAAAAAAAAAAAAAAAAAAAAAAAAAAAAAAAAAAAAAAAAAAAAAAAAAAAAAAAAAAAAAAAAAAAAAAAAAAAAAAAAAAAAAAAAAAAAAAAAAAAAAAAAAAAAAAAAAAAAAAAAAAAAAAAAAAAAAAAAAAAAAAAAAAAAAAAAAAAAAAAAAAAAAAAAAAAAAAAAAAAAAAAAAAAAAAAAAAAAAAAAAAAAAAAAAAAAAAAAAAAAAAAAAAAAAAAAAAAAAAAAAAAAAAAAAAAAAAAAAAAAAAAAAAAAAAAAAAAAAAAAAAAAAAAAAAAAAAAAAAAAAAAAAAAAAAAAAAAAAAAAAAAAAAAAAAAAAAAAAAAAAAAAAAAAAAAAAAAAAAAAAAAAAAAAAAAAAAAAAAAAAAAAAAAAAAAAAAAAAAAAAAAAAAAAAAAAAAAAAAAAAAAAAAAAAAAAAAAAAAAAAAAAAAAAAAAAAAAAAAAAAAAAAAAAAAAAAAAAAAAAAAAAAAAAAAAAAAAAAAAAAAAAAAAAAAAAAAAAAAAAAAAAAAAAAAAAAAAAAAAAAAAAAAAAAAAAAAAAAAAAAAAAAAAAAAAAAAAAAAAAAAAAAAAAAAAAAAAAAAAAAAAAAAAAAAAAAAAAAAAAAAAAAAAAAAAAAAAAAAAAAAAAAAAAAAAAAAAAAAAAAAAAAAAAAAAAAAAAAAAAAAAAAAAAAAAAAAAAAAAAAAAAAAAAAAAAAAAAAAAAAAAAAAAAAAAAAAAAAAAAAAAAAAAAAAAAAAAAAAAAAAAAAAAAAAAAAAAAAAAAAAAAAAAAAAAAAAAAAAAAAAAAAAAAAAAAAAAAAAAAAAAAAAAAAAAAAAAAAAAAAAAAAAAAAAAAAAAAAAAAAAAAAAAAAAAAAAAAAAAAAAAAAAAAAAAAAAAAAAAAAAAAAAAAAAAAAAAAAAAAAAAAAAAAAAAAAAAAAAAAAAAAAAAAAAAAAAAAAAAAAAAAAAAAAAAAAAAAAAAAAAAAAAAAAAAAAAAAAAAAAAAAAAAAAAAAAAAAAAAAAAAAAAAAAAAAAAAAAAAAAAAAAAAAAAAAAAAAAAAAAAAAAAAAAAAAAAAAAAAAAAAAAAAAAAAAAAAAAAAAAAAAAAAAAAAAAAAAAAAAAAAAAAAAAAAAAAAAAAAAAAAAAAAAAAAAAAAAAAAAAAAAAAAAAAAAAAAAAAAAAAAAAAAAAAAAAAAAAAAAAAAAAAAAAAAAAAAAAAAAAAAAAAAAAAAAAAAAAAAAAAAAAAAAAAAAAAAAAAAAAAAAAAAAAAAAAAAAAAAAAAAAAAAAAAAAAAAAAAAAAAAAAAAAAAAAAAAAAAAAAAAAAAAAAAAAAAAAAAAAAAAAAAAAAAAAAAAAAAAAAAAAAAAAAAAAAAAAAAAAAAAAAAAAAAAAAAAAAAAAAAAAAAAAAAAAAAAAAAAAAAAAAAAAAAAAAAAAAAAAAAAAAAAAAAAAAAAAAAAAAAAAAAAAAAAAAAAAAAAAAAAAAAAAAAAAAAAAAAAAAAAAAAAAAAAAAAAAAAAAAAAAAAAAAAAAAAAAAAAAAAAAAAAAAAAAAAAAAAAAAAAAAAAAAAAAAAAAAAAAAAAAAAAAAAAAAAAAAAAAAAAAAAAAAAAAAAAAAAAAAAAAAAAAAAAAAAAAAAAAAAAAAAAAAAAAAAAAAAAAAAAAAAAAAAAAAAAAAAAAAAAAAAAAAAAAAAAAAAAAAAAAAAAAAAAAAAAAAAAAAAAAAAAAAAAAAAAAAAAAAAAAAAAAAAAAAAAAAAAAAAAAAAAAAAAAAAAAAAAAAAAAAAAAAAAAAAAAAAAAAAAAAAAAAAAAAAAAAAAAAAAAAAAAAAAAAAAAAAAAAAAAAAAAAAAAAAAAAAAAAAAAAAAAAAAAAAAAAAAAAAAAAAAAAAAAAAAAAAAAAAAAAAAAAAAAAAAAAAAAAAAAAAAAAAAAAAAAAAAAAAAAAAAAAAAAAAAAAAAAAAAAAAAAAAAAAAAAAAAAAAAAAAAAAAAAAAAAAAAAAAAAAAAAAAAAAAAAAAAAAAAAAAAAAAAAAAAAAAAAAAAAAAAAAAAAAAAAAAAAAAAAAAAAAAAAAAAAAAAAAAAAAAAAAAAAAAAAAAAAAAAAAAAAAAAAAAAAAAAAAAAAAAAAAAAAAAAAAAAAAAAAAAAAAAAAAAAAAAAAAAAAAAAAAAAAAAAAAAAAAAAAAAAAAAAAAAAAAAAAAAAAAAAAAAAAAAAAAAAAAAAAAAAAAAAAAAAAAAAAAAAAAAAAAAAAAAAAAAAAAAAAAAAAAAAAAAAAAAAAAAAAAAAAAAAAAAAAAAAAAAAAAAAAAAAAAAAAAAAAAAAAAAAAAAAAAAAAAAAAAAAAAAAAAAAAAAAAAAAAAAAAAAAAAAAAAAAAAAAAAAAAAAAAAAAAAAAAAAAAAAAAAAAAAAAAAAAAAAAAAAAAAAAAAAAAAAAAAAAAAAAAAAAAAAAAAAAAAAAAAAAAAAAAAAAAAAAAAAAAAAAAAAAAAAAAAAAAAAAAAAAAAAAAAAAAAAAAAAAAAAAAAAAAAAAAAAAAAAAAAAAAAAAAAAAAAAAAAAAAAAAAAAAAAAAAAAAAAAAAAAAAAAAAAAAAAAAAAAAAAAAAAAAAAAAAAAAAAAAAAAAAAAAAAAAAAAAAAAAAAAAAAAAAAAAAAAAAAAAAAAAAAAAAAAAAAAAAAAAAAAAAAAAAAAAAAAAAAAAAAAAAAAAAAAAAAAAAAAAAAAAAAAAAAAAAAAAAAAAAAAAAAAAAAAAAAAAAAAAAAAAAAAAAAAAAAAAAAAAAAAAAAAAAAAAAAAAAAAAAAAAAAAAAAAAAAAAAAAAAAAAAAAAAAAAAAAAAAAAAAAAAAAAAAAAAAAAAAAAAAAAAAAAAAAAAAAAAAAAAAAAAAAAAAAAAAAAAAAAAAAAAAAAAAAAAAAAAAAAAAAAAAAAAAAAAAAAAAAAAAAAAAAAAAAAAAPZYQDZ8WcujXKnGDyFKzJDQruTt3CK0tjTG1ypcC0pEl+LM/NHOruMmivNXhyibdhL8a1jPjONfM6m1gKcP+9y60j0=</c2pa:manifest></metadata><title>College Trends</title><path fill="#000000" d="M37.84 1.32L37.84 1.32Q27.15 1.32 19.31-3.17Q11.47-7.67 7.20-15.89Q2.93-24.12 2.93-35.21L2.93-35.21Q2.93-46.29 7.15-54.47Q11.38-62.65 19.21-67.14Q27.05-71.63 37.84-71.63L37.84-71.63Q50.39-71.63 58.96-65.41Q67.53-59.18 70.21-47.75L70.21-47.75L52.44-43.65Q51.27-50.05 47.41-53.34Q43.55-56.64 37.79-56.64L37.79-56.64Q32.52-56.64 28.83-54.05Q25.15-51.46 23.24-46.66Q21.34-41.85 21.34-35.16L21.34-35.16Q21.34-28.47 23.27-23.61Q25.20-18.75 28.86-16.19Q32.52-13.62 37.70-13.62L37.70-13.62Q43.21-13.62 46.88-16.67Q50.54-19.73 52.05-25.39L52.05-25.39L70.17-21.92Q67.33-10.89 58.81-4.79Q50.29 1.32 37.84 1.32ZM100.08 1.32L100.08 1.32Q91.87 1.32 85.62-2.20Q79.37-5.71 75.88-11.96Q72.39-18.21 72.39-26.37L72.39-26.37Q72.39-34.57 75.88-40.80Q79.37-47.02 85.62-50.54Q91.87-54.05 100.08-54.05L100.08-54.05Q108.28-54.05 114.53-50.54Q120.78-47.02 124.29-40.80Q127.81-34.57 127.81-26.37L127.81-26.37Q127.81-18.16 124.29-11.94Q120.78-5.71 114.50-2.20Q108.23 1.32 100.08 1.32ZM100.13-10.94L100.13-10.94Q104.71-10.94 107.40-15.09Q110.09-19.24 110.09-26.37L110.09-26.37Q110.09-33.50 107.40-37.65Q104.71-41.80 100.08-41.80L100.08-41.80Q95.49-41.80 92.80-37.65Q90.12-33.50 90.12-26.37L90.12-26.37Q90.12-19.24 92.80-15.09Q95.49-10.94 100.13-10.94ZM157.28 0L148.00 0Q141.02 0 137.55-3.17Q134.09-6.35 134.09-12.60L134.09-12.60L134.09-73.24L151.23-73.24L151.23-14.94Q151.23-13.28 151.69-12.74Q152.15-12.21 153.67-12.21L153.67-12.21L157.28-12.21L157.28 0ZM185.53 0L176.25 0Q169.27 0 165.80-3.17Q162.34-6.35 162.34-12.60L162.34-12.60L162.34-73.24L179.48-73.24L179.48-14.94Q179.48-13.28 179.94-12.74Q180.40-12.21 181.92-12.21L181.92-12.21L185.53-12.21L185.53 0ZM215.98 1.32L215.98 1.32Q208.17 1.32 201.70-2.08Q195.23-5.47 191.37-11.69Q187.51-17.92 187.51-26.46L187.51-26.46Q187.51-34.91 191.27-41.09Q195.03-47.27 201.48-50.66Q207.92-54.05 215.98-54.05L215.98-54.05Q220.42-54.05 224.99-52.73Q229.55-51.42 233.41-48.05Q237.27-44.68 239.61-38.60Q241.96-32.52 241.96-23.05L241.96-23.05L205.38-23.05Q205.87-18.31 207.78-15.19L207.78-15.19Q210.27-10.99 215.83-10.99L215.83-10.99Q219.25-10.99 221.79-12.77Q224.33-14.55 225.79-18.41L225.79-18.41L241.03-14.79Q239.17-9.03 235.19-5.47Q231.21-1.90 226.13-0.29Q221.06 1.32 215.98 1.32ZM205.68-32.03L205.68-32.03L225.11-32.03Q224.62-35.01 223.64-37.06L223.64-37.06Q222.23-39.89 220.15-41.19Q218.08-42.48 215.49-42.48L215.49-42.48Q211.93-42.48 209.66-40.38Q207.38-38.28 206.31-34.67L206.31-34.67Q205.92-33.40 205.68-32.03ZM271.47 20.36L270.06 20.36Q256.88 20.36 250.45 16.94Q244.03 13.53 244.03 6.45L244.03 6.45Q244.03 1.95 246.35-0.59Q248.67-3.13 252.04-4.20L252.04-4.20Q250.23-5.57 249.23-7.50Q248.23-9.42 248.23-11.67L248.23-11.67Q248.23-14.75 250.16-17.02Q252.09-19.29 255.65-20.36L255.65-20.36Q251.80-22.80 249.65-26.61Q247.50-30.42 247.50-35.21L247.50-35.21Q247.50-40.87 250.43-45.09Q253.36-49.32 258.61-51.68Q263.86-54.05 270.74-54.05L270.74-54.05Q274.84-54.05 278.31-53.22L278.31-53.22Q278.85-57.81 281.68-60.40L281.68-60.40Q285.15-63.57 292.18-63.57L292.18-63.57L296.72-63.57L296.72-51.37L290.57-51.37Q289.05-51.37 288.59-50.83Q288.13-50.29 288.13-48.63L288.13-48.63L288.13-48.39Q289.83-46.88 291.10-45.07L291.10-45.07Q294.03-40.82 294.03-35.21L294.03-35.21Q294.03-29.64 291.10-25.42Q288.17-21.19 282.90-18.82Q277.63-16.46 270.69-16.46L270.69-16.46L267.57-16.46Q263.27-16.46 263.27-14.26L263.27-14.26Q263.27-12.16 267.67-12.16L267.67-12.16L278.36-12.16Q283.49-12.16 287.25-10.91Q291.01-9.67 293.50-7.45Q295.99-5.22 297.23-2.25Q298.48 0.73 298.48 4.20L298.48 4.20Q298.48 12.35 291.81 16.36Q285.15 20.36 271.47 20.36L271.47 20.36ZM270.74-26.90L270.74-26.90Q274.21-26.90 276.14-29.10Q278.07-31.30 278.07-35.21Q278.07-39.11 276.14-41.33Q274.21-43.55 270.74-43.55L270.74-43.55Q267.32-43.55 265.37-41.33Q263.42-39.11 263.42-35.21Q263.42-31.30 265.37-29.10Q267.32-26.90 270.74-26.90ZM270.55 9.96L270.55 9.96L271.82 9.96Q281.19 9.96 281.19 4.35L281.19 4.35Q281.19 2.20 279.56 0.76Q277.92-0.68 273.43-0.68L273.43-0.68L267.42-0.68Q265.08-0.68 262.98 0.54Q260.88 1.76 260.88 4.64L260.88 4.64Q260.88 7.32 263.22 8.64Q265.57 9.96 270.55 9.96ZM329.36 1.32L329.36 1.32Q321.55 1.32 315.08-2.08Q308.61-5.47 304.75-11.69Q300.90-17.92 300.90-26.46L300.90-26.46Q300.90-34.91 304.66-41.09Q308.42-47.27 314.86-50.66Q321.31-54.05 329.36-54.05L329.36-54.05Q333.81-54.05 338.37-52.73Q342.94-51.42 346.79-48.05Q350.65-44.68 353.00-38.60Q355.34-32.52 355.34-23.05L355.34-23.05L318.77-23.05Q319.26-18.31 321.16-15.19L321.16-15.19Q323.65-10.99 329.22-10.99L329.22-10.99Q332.63-10.99 335.17-12.77Q337.71-14.55 339.18-18.41L339.18-18.41L354.41-14.79Q352.56-9.03 348.58-5.47Q344.60-1.90 339.52-0.29Q334.44 1.32 329.36 1.32ZM319.06-32.03L319.06-32.03L338.49-32.03Q338.01-35.01 337.03-37.06L337.03-37.06Q335.61-39.89 333.54-41.19Q331.46-42.48 328.88-42.48L328.88-42.48Q325.31-42.48 323.04-40.38Q320.77-38.28 319.70-34.67L319.70-34.67Q319.30-33.40 319.06-32.03ZM44.14 90L26.51 90L26.51 34.68L1.76 34.68L1.76 19.69L68.95 19.69L68.95 34.68L44.14 34.68L44.14 90ZM91.29 90L74.15 90L74.15 37.27L90.80 37.27L90.80 46.20Q93.24 41.32 97.15 38.83L97.15 38.83Q101.59 35.95 107.16 35.95L107.16 35.95Q108.72 35.95 110.38 36.19Q112.04 36.44 113.70 37.02L113.70 37.02L112.58 51.33Q109.21 50.40 106.18 50.40L106.18 50.40Q103.45 50.40 100.81 51.30Q98.17 52.21 96.02 54.33Q93.88 56.46 92.58 60.17Q91.29 63.88 91.29 69.49L91.29 69.49L91.29 90ZM144.34 91.32L144.34 91.32Q136.53 91.32 130.06 87.92Q123.59 84.53 119.73 78.31Q115.88 72.08 115.88 63.54L115.88 63.54Q115.88 55.09 119.63 48.91Q123.39 42.73 129.84 39.34Q136.29 35.95 144.34 35.95L144.34 35.95Q148.79 35.95 153.35 37.27Q157.92 38.58 161.77 41.95Q165.63 45.32 167.97 51.40Q170.32 57.48 170.32 66.95L170.32 66.95L133.75 66.95Q134.23 71.69 136.14 74.81L136.14 74.81Q138.63 79.01 144.20 79.01L144.20 79.01Q147.61 79.01 150.15 77.23Q152.69 75.45 154.16 71.59L154.16 71.59L169.39 75.21Q167.54 80.97 163.56 84.53Q159.58 88.10 154.50 89.71Q149.42 91.32 144.34 91.32ZM134.04 57.97L134.04 57.97L153.47 57.97Q152.98 54.99 152.01 52.94L152.01 52.94Q150.59 50.11 148.52 48.81Q146.44 47.52 143.85 47.52L143.85 47.52Q140.29 47.52 138.02 49.62Q135.75 51.72 134.67 55.33L134.67 55.33Q134.28 56.60 134.04 57.97ZM193.98 90L176.84 90L176.84 37.27L193.49 37.27L193.49 46.54Q195.98 41.61 199.98 38.88L199.98 38.88Q204.28 35.95 210.43 35.95L210.43 35.95Q216.78 35.95 220.66 38.85Q224.54 41.76 226.30 46.81Q228.06 51.87 228.06 58.31L228.06 58.31L228.06 90L210.97 90L210.97 59.34Q210.97 54.06 209.43 51.33Q207.89 48.59 203.94 48.59L203.94 48.59Q199.01 48.59 196.49 53.11Q193.98 57.63 193.98 67.20L193.98 67.20L193.98 90ZM254.94 91.32L254.94 91.32Q248.25 91.32 243.37 88.02Q238.49 84.73 235.90 78.53Q233.31 72.32 233.31 63.49L233.31 63.49Q233.31 54.70 235.92 48.54Q238.54 42.39 243.44 39.17Q248.35 35.95 255.24 35.95L255.24 35.95Q261.34 35.95 265.73 38.68L265.73 38.68Q268.91 40.68 271.30 44.44L271.30 44.44L271.30 16.76L288.44 16.76L288.44 90L272.18 90L272.18 80.58Q269.40 86.04 265.10 88.63L265.10 88.63Q260.71 91.32 254.94 91.32ZM261.49 78.62L261.49 78.62Q264.61 78.62 267.03 76.96Q269.45 75.30 270.84 71.96Q272.23 68.61 272.23 63.68L272.23 63.68Q272.23 56.26 269.20 52.43Q266.17 48.59 261.63 48.59L261.63 48.59Q256.85 48.59 254.06 52.67Q251.28 56.75 251.28 63.88L251.28 63.88Q251.28 70.76 253.99 74.69Q256.70 78.62 261.49 78.62ZM320.06 91.32L320.06 91.32Q314.00 91.32 308.46 89.66Q302.92 88.00 299.11 84.38Q295.30 80.77 294.33 74.91L294.33 74.91L309.51 71.88Q309.90 75.64 312.25 77.60Q314.59 79.55 319.33 79.55L319.33 79.55Q323.87 79.55 325.87 77.99Q327.87 76.43 327.87 74.38L327.87 74.38Q327.87 72.57 326.21 71.03Q324.55 69.49 320.11 68.86L320.11 68.86L315.91 68.27Q313.03 67.88 309.66 67.15Q306.29 66.42 303.26 64.88Q300.23 63.34 298.33 60.56Q296.43 57.77 296.43 53.28L296.43 53.28Q296.43 48.01 299.26 44.13Q302.09 40.24 307.27 38.10Q312.44 35.95 319.38 35.95L319.38 35.95Q325.38 35.95 330.53 37.66Q335.68 39.37 339.22 42.76Q342.76 46.15 343.79 51.23L343.79 51.23L328.80 54.31Q328.46 52.70 327.63 51.11Q326.80 49.52 325.01 48.47Q323.23 47.42 320.06 47.42L320.06 47.42Q316.64 47.42 314.83 48.72Q313.03 50.01 313.03 52.01L313.03 52.01Q313.03 53.72 314.35 54.77Q315.66 55.82 317.81 56.43Q319.96 57.04 322.45 57.43L322.45 57.43L327.53 58.16Q331.73 58.75 335.63 60.46Q339.54 62.17 342.06 65.39Q344.57 68.61 344.57 73.84L344.57 73.84Q344.57 79.60 341.35 83.51Q338.13 87.41 332.56 89.37Q326.99 91.32 320.06 91.32ZM0 123.50L44 123.50L44 126.50L0 126.50ZM65.88 132.24L65.88 132.24Q64.06 132.24 62.82 131.60Q61.58 130.96 60.78 129.90L60.78 129.90L62.22 128.52Q63.02 129.48 63.92 129.93Q64.82 130.38 65.96 130.38L65.96 130.38Q67.28 130.38 67.99 129.78Q68.70 129.18 68.70 128.06L68.70 128.06Q68.70 127.16 68.18 126.67Q67.66 126.18 66.40 125.96L66.40 125.96L64.88 125.72Q63.88 125.56 63.20 125.19Q62.52 124.82 62.10 124.31Q61.68 123.80 61.49 123.17Q61.30 122.54 61.30 121.84L61.30 121.84Q61.30 119.86 62.58 118.83Q63.86 117.80 66.10 117.80L66.10 117.80Q67.76 117.80 68.93 118.33Q70.10 118.86 70.82 119.82L70.82 119.82L69.42 121.22Q68.84 120.52 68.05 120.09Q67.26 119.66 66.10 119.66L66.10 119.66Q64.86 119.66 64.21 120.19Q63.56 120.72 63.56 121.74L63.56 121.74Q63.56 122.60 64.07 123.09Q64.58 123.58 65.88 123.80L65.88 123.80L67.36 124.06Q69.24 124.40 70.10 125.43Q70.96 126.46 70.96 127.94L70.96 127.94Q70.96 128.90 70.63 129.70Q70.30 130.50 69.65 131.06Q69 131.62 68.05 131.93Q67.10 132.24 65.88 132.24ZM81.20 132.24L81.20 132.24Q78.54 132.24 77.25 130.36Q75.96 128.48 75.96 125.02L75.96 125.02Q75.96 121.56 77.25 119.68Q78.54 117.80 81.20 117.80L81.20 117.80Q82.22 117.80 82.97 118.07Q83.72 118.34 84.26 118.81Q84.80 119.28 85.17 119.91Q85.54 120.54 85.78 121.26L85.78 121.26L83.76 121.94Q83.60 121.46 83.40 121.04Q83.20 120.62 82.90 120.32Q82.60 120.02 82.19 119.84Q81.78 119.66 81.18 119.66L81.18 119.66Q79.70 119.66 79.02 120.79Q78.34 121.92 78.34 123.84L78.34 123.84L78.34 126.20Q78.34 128.12 79.02 129.25Q79.70 130.38 81.18 130.38L81.18 130.38Q81.78 130.38 82.19 130.20Q82.60 130.02 82.90 129.72Q83.20 129.42 83.40 129Q83.60 128.58 83.76 128.10L83.76 128.10L85.78 128.78Q85.54 129.50 85.17 130.13Q84.80 130.76 84.26 131.23Q83.72 131.70 82.97 131.97Q82.22 132.24 81.20 132.24ZM95.60 132.24L95.60 132.24Q94.28 132.24 93.31 131.75Q92.34 131.26 91.71 130.34Q91.08 129.42 90.78 128.08Q90.48 126.74 90.48 125.02L90.48 125.02Q90.48 123.32 90.78 121.97Q91.08 120.62 91.71 119.70Q92.34 118.78 93.31 118.29Q94.28 117.80 95.60 117.80L95.60 117.80Q96.92 117.80 97.89 118.29Q98.86 118.78 99.49 119.70Q100.12 120.62 100.42 121.97Q100.72 123.32 100.72 125.02L100.72 125.02Q100.72 126.74 100.42 128.08Q100.12 129.42 99.49 130.34Q98.86 131.26 97.89 131.75Q96.92 132.24 95.60 132.24ZM95.60 130.38L95.60 130.38Q97.10 130.38 97.72 129.25Q98.34 128.12 98.34 126.18L98.34 126.18L98.34 123.84Q98.34 121.92 97.72 120.79Q97.10 119.66 95.60 119.66L95.60 119.66Q94.10 119.66 93.48 120.79Q92.86 121.92 92.86 123.84L92.86 123.84L92.86 126.20Q92.86 128.12 93.48 129.25Q94.10 130.38 95.60 130.38ZM108.30 126.36L108.30 132L106.08 132L106.08 118.04L111.30 118.04Q113.30 118.04 114.35 119.16Q115.40 120.28 115.40 122.24L115.40 122.24Q115.40 123.84 114.62 124.88Q113.84 125.92 112.38 126.16L112.38 126.16L115.60 132L113.12 132L110.16 126.36L108.30 126.36ZM108.30 124.56L110.98 124.56Q113.06 124.56 113.06 122.66L113.06 122.66L113.06 121.80Q113.06 119.90 110.98 119.90L110.98 119.90L108.30 119.90L108.30 124.56ZM129.66 132L120.92 132L120.92 118.04L129.66 118.04L129.66 119.92L123.16 119.92L123.16 123.98L129.42 123.98L129.42 125.86L123.16 125.86L123.16 130.12L129.66 130.12L129.66 132ZM140.40 132.24L140.40 132.24Q137.74 132.24 136.45 130.36Q135.16 128.48 135.16 125.02L135.16 125.02Q135.16 121.56 136.45 119.68Q137.74 117.80 140.40 117.80L140.40 117.80Q141.42 117.80 142.17 118.07Q142.92 118.34 143.46 118.81Q144 119.28 144.37 119.91Q144.74 120.54 144.98 121.26L144.98 121.26L142.96 121.94Q142.80 121.46 142.60 121.04Q142.40 120.62 142.10 120.32Q141.80 120.02 141.39 119.84Q140.98 119.66 140.38 119.66L140.38 119.66Q138.90 119.66 138.22 120.79Q137.54 121.92 137.54 123.84L137.54 123.84L137.54 126.20Q137.54 128.12 138.22 129.25Q138.90 130.38 140.38 130.38L140.38 130.38Q140.98 130.38 141.39 130.20Q141.80 130.02 142.10 129.72Q142.40 129.42 142.60 129Q142.80 128.58 142.96 128.10L142.96 128.10L144.98 128.78Q144.74 129.50 144.37 130.13Q144 130.76 143.46 131.23Q142.92 131.70 142.17 131.97Q141.42 132.24 140.40 132.24ZM160.42 132L158.04 132L156.98 128.28L152.54 128.28L151.48 132L149.20 132L153.28 118.04L156.34 118.04L160.42 132ZM156.56 126.42L154.84 120.30L154.68 120.30L152.96 126.42L156.56 126.42ZM167.50 126.36L167.50 132L165.28 132L165.28 118.04L170.50 118.04Q172.50 118.04 173.55 119.16Q174.60 120.28 174.60 122.24L174.60 122.24Q174.60 123.84 173.82 124.88Q173.04 125.92 171.58 126.16L171.58 126.16L174.80 132L172.32 132L169.36 126.36L167.50 126.36ZM167.50 124.56L170.18 124.56Q172.26 124.56 172.26 122.66L172.26 122.66L172.26 121.80Q172.26 119.90 170.18 119.90L170.18 119.90L167.50 119.90L167.50 124.56ZM180.04 132L180.04 118.04L184.20 118.04Q186.88 118.04 188.17 119.82Q189.46 121.60 189.46 125.02L189.46 125.02Q189.46 128.44 188.17 130.22Q186.88 132 184.20 132L184.20 132L180.04 132ZM182.26 130.16L184.06 130.16Q185.60 130.16 186.35 129.13Q187.10 128.10 187.10 126.18L187.10 126.18L187.10 123.86Q187.10 121.94 186.35 120.91Q185.60 119.88 184.06 119.88L184.06 119.88L182.26 119.88L182.26 130.16ZM209.64 132L209.64 118.04L213.80 118.04Q216.48 118.04 217.77 119.82Q219.06 121.60 219.06 125.02L219.06 125.02Q219.06 128.44 217.77 130.22Q216.48 132 213.80 132L213.80 132L209.64 132ZM211.86 130.16L213.66 130.16Q215.20 130.16 215.95 129.13Q216.70 128.10 216.70 126.18L216.70 126.18L216.70 123.86Q216.70 121.94 215.95 120.91Q215.20 119.88 213.66 119.88L213.66 119.88L211.86 119.88L211.86 130.16ZM234.42 132L232.04 132L230.98 128.28L226.54 128.28L225.48 132L223.20 132L227.28 118.04L230.34 118.04L234.42 132ZM230.56 126.42L228.84 120.30L228.68 120.30L226.96 126.42L230.56 126.42ZM249.10 119.92L244.72 119.92L244.72 132L242.48 132L242.48 119.92L238.10 119.92L238.10 118.04L249.10 118.04L249.10 119.92ZM264.02 132L261.64 132L260.58 128.28L256.14 128.28L255.08 132L252.80 132L256.88 118.04L259.94 118.04L264.02 132ZM260.16 126.42L258.44 120.30L258.28 120.30L256.56 126.42L260.16 126.42Z"></path></svg>